# xmcd CD database file
#
# Track frame offsets:
#	150
#	17847
#	37915
#	54015
#	72355
#	93337
#	114777
#	131920
#	151850
#
# Disc length: 2269 seconds
#
# Revision: 6
# Processed by: cddbd v1.5.2PL0 Copyright (c) Steve Scherf et al.
# Submitted via: CDex 1.51
#
DISCID=6508db09
DTITLE=FIFTH ANGEL - Fifth Angel
DYEAR=1986
DGENRE=Heavy Metal
TTITLE0=In The Fallout
TTITLE1=Shout It Out
TTITLE2=Call Out The Warning
TTITLE3=Fifth Angel
TTITLE4=Wings Of Destiny
TTITLE5=The Night
TTITLE6=Only The Strong Survive
TTITLE7=Cry Out The Fools
TTITLE8=Fade To Flames
EXTD=YEAR: 1986
EXTT0=
EXTT1=
EXTT2=
EXTT3=
EXTT4=
EXTT5=
EXTT6=
EXTT7=
EXTT8=
PLAYORDER=
